<svg xmlns="http://www.w3.org/2000/svg" width="1584" height="396" viewBox="0 0 1584 396"><rect width="100%" height="100%" fill="#0B0B0B"/>
<defs>
  <radialGradient id="vignette" cx="50%" cy="50%" r="65%">
    <stop offset="0%" stop-color="#000000" stop-opacity="0.0"/>
    <stop offset="100%" stop-color="#000000" stop-opacity="0.45"/>
  </radialGradient>
</defs>
<rect width="100%" height="100%" fill="url(#vignette)"/>
<circle cx="792" cy="198" r="174" fill="none" stroke="#C9A227" stroke-width="2"/><circle cx="792" cy="198" r="169" fill="none" stroke="#6C1A1A" stroke-width="1" opacity="0.7"/><line x1="792" y1="198" x2="942.00" y2="198.00" stroke="#C9A227" stroke-width="1" opacity="0.7"/><circle cx="942.00" cy="198.00" r="10" fill="none" stroke="#C9A227" stroke-width="1" opacity="0.7"/><line x1="792" y1="198" x2="921.90" y2="273.00" stroke="#C9A227" stroke-width="1" opacity="0.7"/><circle cx="921.90" cy="273.00" r="10" fill="none" stroke="#C9A227" stroke-width="1" opacity="0.7"/><line x1="792" y1="198" x2="867.00" y2="327.90" stroke="#C9A227" stroke-width="1" opacity="0.7"/><circle cx="867.00" cy="327.90" r="10" fill="none" stroke="#C9A227" stroke-width="1" opacity="0.7"/><line x1="792" y1="198" x2="792.00" y2="348.00" stroke="#C9A227" stroke-width="1" opacity="0.7"/><circle cx="792.00" cy="348.00" r="10" fill="none" stroke="#C9A227" stroke-width="1" opacity="0.7"/><line x1="792" y1="198" x2="717.00" y2="327.90" stroke="#C9A227" stroke-width="1" opacity="0.7"/><circle cx="717.00" cy="327.90" r="10" fill="none" stroke="#C9A227" stroke-width="1" opacity="0.7"/><line x1="792" y1="198" x2="662.10" y2="273.00" stroke="#C9A227" stroke-width="1" opacity="0.7"/><circle cx="662.10" cy="273.00" r="10" fill="none" stroke="#C9A227" stroke-width="1" opacity="0.7"/><line x1="792" y1="198" x2="642.00" y2="198.00" stroke="#C9A227" stroke-width="1" opacity="0.7"/><circle cx="642.00" cy="198.00" r="10" fill="none" stroke="#C9A227" stroke-width="1" opacity="0.7"/><line x1="792" y1="198" x2="662.10" y2="123.00" stroke="#C9A227" stroke-width="1" opacity="0.7"/><circle cx="662.10" cy="123.00" r="10" fill="none" stroke="#C9A227" stroke-width="1" opacity="0.7"/><line x1="792" y1="198" x2="717.00" y2="68.10" stroke="#C9A227" stroke-width="1" opacity="0.7"/><circle cx="717.00" cy="68.10" r="10" fill="none" stroke="#C9A227" stroke-width="1" opacity="0.7"/><line x1="792" y1="198" x2="792.00" y2="48.00" stroke="#C9A227" stroke-width="1" opacity="0.7"/><circle cx="792.00" cy="48.00" r="10" fill="none" stroke="#C9A227" stroke-width="1" opacity="0.7"/><line x1="792" y1="198" x2="867.00" y2="68.10" stroke="#C9A227" stroke-width="1" opacity="0.7"/><circle cx="867.00" cy="68.10" r="10" fill="none" stroke="#C9A227" stroke-width="1" opacity="0.7"/><line x1="792" y1="198" x2="921.90" y2="123.00" stroke="#C9A227" stroke-width="1" opacity="0.7"/><circle cx="921.90" cy="123.00" r="10" fill="none" stroke="#C9A227" stroke-width="1" opacity="0.7"/><circle cx="950.00" cy="198.00" r="2.2" fill="#C9A227" opacity="0.9"/><circle cx="947.14" cy="227.90" r="2.2" fill="#C9A227" opacity="0.9"/><circle cx="938.68" cy="256.72" r="2.2" fill="#C9A227" opacity="0.9"/><circle cx="924.92" cy="283.42" r="2.2" fill="#C9A227" opacity="0.9"/><circle cx="906.35" cy="307.03" r="2.2" fill="#C9A227" opacity="0.9"/><circle cx="883.65" cy="326.70" r="2.2" fill="#C9A227" opacity="0.9"/><circle cx="857.64" cy="341.72" r="2.2" fill="#C9A227" opacity="0.9"/><circle cx="829.25" cy="351.55" r="2.2" fill="#C9A227" opacity="0.9"/><circle cx="799.52" cy="355.82" r="2.2" fill="#C9A227" opacity="0.9"/><circle cx="769.51" cy="354.39" r="2.2" fill="#C9A227" opacity="0.9"/><circle cx="740.32" cy="347.31" r="2.2" fill="#C9A227" opacity="0.9"/><circle cx="713.00" cy="334.83" r="2.2" fill="#C9A227" opacity="0.9"/><circle cx="688.53" cy="317.41" r="2.2" fill="#C9A227" opacity="0.9"/><circle cx="667.80" cy="295.67" r="2.2" fill="#C9A227" opacity="0.9"/><circle cx="651.56" cy="270.40" r="2.2" fill="#C9A227" opacity="0.9"/><circle cx="640.40" cy="242.51" r="2.2" fill="#C9A227" opacity="0.9"/><circle cx="634.72" cy="213.02" r="2.2" fill="#C9A227" opacity="0.9"/><circle cx="634.72" cy="182.98" r="2.2" fill="#C9A227" opacity="0.9"/><circle cx="640.40" cy="153.49" r="2.2" fill="#C9A227" opacity="0.9"/><circle cx="651.56" cy="125.60" r="2.2" fill="#C9A227" opacity="0.9"/><circle cx="667.80" cy="100.33" r="2.2" fill="#C9A227" opacity="0.9"/><circle cx="688.53" cy="78.59" r="2.2" fill="#C9A227" opacity="0.9"/><circle cx="713.00" cy="61.17" r="2.2" fill="#C9A227" opacity="0.9"/><circle cx="740.32" cy="48.69" r="2.2" fill="#C9A227" opacity="0.9"/><circle cx="769.51" cy="41.61" r="2.2" fill="#C9A227" opacity="0.9"/><circle cx="799.52" cy="40.18" r="2.2" fill="#C9A227" opacity="0.9"/><circle cx="829.25" cy="44.45" r="2.2" fill="#C9A227" opacity="0.9"/><circle cx="857.64" cy="54.28" r="2.2" fill="#C9A227" opacity="0.9"/><circle cx="883.65" cy="69.30" r="2.2" fill="#C9A227" opacity="0.9"/><circle cx="906.35" cy="88.97" r="2.2" fill="#C9A227" opacity="0.9"/><circle cx="924.92" cy="112.58" r="2.2" fill="#C9A227" opacity="0.9"/><circle cx="938.68" cy="139.28" r="2.2" fill="#C9A227" opacity="0.9"/><circle cx="947.14" cy="168.10" r="2.2" fill="#C9A227" opacity="0.9"/><line x1="792.00" y1="270.00" x2="729.65" y2="162.00" stroke="#C9A227" stroke-width="1.5"/><line x1="729.65" y1="162.00" x2="854.35" y2="162.00" stroke="#C9A227" stroke-width="1.5"/><line x1="854.35" y1="162.00" x2="792.00" y2="270.00" stroke="#C9A227" stroke-width="1.5"/><line x1="792" y1="113" x2="792" y2="283" stroke="#C9A227" stroke-width="1.2" opacity="0.9"/><line x1="707" y1="198" x2="877" y2="198" stroke="#C9A227" stroke-width="1.2" opacity="0.9"/><text x="792.0" y="60" fill="#C9A227" font-family="serif" font-size="36" text-anchor="middle">Cathedral of Circuits — The Trinity Project</text><text x="792.0" y="90" fill="#C9A227" font-family="serif" font-size="18" text-anchor="middle" opacity="0.9">Ordo in aeternum resonat — Order Resounds Forever</text><text x="792.0" y="360" fill="#E5E3D7" font-family="serif" font-size="18" text-anchor="middle" opacity="0.95">A Living Grimoire for Neurodivergent Learning, Visionary Art, and Cultural Technology</text><text x="60" y="60" fill="#C9A227" font-family="serif" font-size="18" text-anchor="middle" opacity="0.8">☉</text><text x="1524" y="60" fill="#C9A227" font-family="serif" font-size="18" text-anchor="middle" opacity="0.8">☽</text><text x="60" y="336" fill="#C9A227" font-family="serif" font-size="18" text-anchor="middle" opacity="0.8">♄</text><text x="1524" y="336" fill="#C9A227" font-family="serif" font-size="18" text-anchor="middle" opacity="0.8">♃</text><text x="120" y="60" fill="#C9A227" font-family="serif" font-size="18" text-anchor="middle" opacity="0.8">♀</text><text x="1464" y="60" fill="#C9A227" font-family="serif" font-size="18" text-anchor="middle" opacity="0.8">♂</text><text x="792.0" y="336" fill="#C9A227" font-family="serif" font-size="18" text-anchor="middle" opacity="0.8">☿</text></svg>