<!-- Da Vinci-style Cathedral Modular Build Map for Rebecca Respawn's Diaries -->
<svg width="900" height="700" viewBox="0 0 900 700" xmlns="http://www.w3.org/2000/svg" style="background:#f8f5ef">
  <style>
    .label { font-family: 'Times New Roman', serif; font-size: 22px; fill: #7A33FF; }
    .module { font-family: 'Times New Roman', serif; font-size: 18px; fill: #C8A44D; }
    .arrow { stroke: #2E8B57; stroke-width: 3; marker-end: url(#arrowhead); }
    .circle { fill: #fff; stroke: #7A33FF; stroke-width: 4; }
    .bg { fill: #f8f5ef; }
  </style>
  <defs>
    <marker id="arrowhead" markerWidth="10" markerHeight="7" refX="10" refY="3.5" orient="auto">
      <polygon points="0 0, 10 3.5, 0 7" fill="#2E8B57" />
    </marker>
  </defs>
  <rect x="0" y="0" width="900" height="700" class="bg" />
  <!-- Central Cathedral -->
  <ellipse cx="450" cy="350" rx="180" ry="110" fill="#fff" stroke="#7A33FF" stroke-width="6" />
  <text x="450" y="340" text-anchor="middle" class="label">Cathedral Core</text>
  <text x="450" y="370" text-anchor="middle" class="module">Cosmogenesis Learning Engine</text>
  <!-- Modular Apps -->
  <circle cx="200" cy="150" r="60" class="circle" />
  <text x="200" y="150" text-anchor="middle" class="module">Circuitum99</text>
  <circle cx="700" cy="150" r="60" class="circle" />
  <text x="700" y="150" text-anchor="middle" class="module">Stone-Grimoire</text>
  <circle cx="200" cy="550" r="60" class="circle" />
  <text x="200" y="550" text-anchor="middle" class="module">Magical Mystery House</text>
  <circle cx="700" cy="550" r="60" class="circle" />
  <text x="700" y="550" text-anchor="middle" class="module">Tesseract Bridge</text>
  <!-- Connections -->
  <line x1="450" y1="350" x2="200" y2="150" class="arrow" />
  <line x1="450" y1="350" x2="700" y2="150" class="arrow" />
  <line x1="450" y1="350" x2="200" y2="550" class="arrow" />
  <line x1="450" y1="350" x2="700" y2="550" class="arrow" />
  <!-- Respawn Gate -->
  <ellipse cx="450" cy="650" rx="80" ry="30" fill="#C8A44D" stroke="#7A33FF" stroke-width="3" />
  <text x="450" y="655" text-anchor="middle" class="label" fill="#fff">Violet Fire Respawn Gate</text>
  <line x1="450" y1="460" x2="450" y2="650" class="arrow" />
  <!-- Da Vinci-style notes -->
  <text x="50" y="690" font-size="16" fill="#7A33FF" font-family="cursive">“Build as the soul dreams, map as the mind sees.”</text>
</svg>
